<svg width="3532" height="833" viewBox="0 0 3532 833" fill="none" xmlns="http://www.w3.org/2000/svg">
<path d="M455.031 263.673H510.564C663.974 263.673 788.23 387.929 788.23 541.339V610.756C788.23 664.38 831.789 707.939 885.413 707.939C939.037 707.939 982.596 664.38 982.596 610.756V541.339C982.596 387.929 858.34 263.673 704.93 263.673H455.031Z" fill="#E47700"/>
<path d="M649.397 402.506L621.63 346.973H600.805C581.716 346.973 566.097 331.354 566.097 312.265C566.097 293.175 581.716 277.557 600.805 277.557C605.491 277.557 609.482 273.739 609.482 268.88C609.482 266.624 608.615 264.368 606.879 262.806L600.805 256.732C589.351 245.278 589.351 226.536 600.805 215.082C612.259 203.628 631.001 203.628 642.455 215.082L648.529 221.156C651.826 224.453 657.38 224.627 660.677 221.156C662.239 219.594 663.28 217.338 663.28 215.082C663.28 195.992 678.899 180.374 697.988 180.374C717.078 180.374 732.697 195.992 732.697 215.082C732.697 219.767 736.514 223.759 741.374 223.759C743.63 223.759 745.886 222.891 747.448 221.156L753.521 215.082C764.975 203.628 783.718 203.628 795.171 215.082C806.625 226.536 806.625 245.278 795.171 256.732L789.097 262.806C785.8 266.103 785.627 271.656 789.097 274.954C790.659 276.515 792.915 277.557 795.171 277.557C814.261 277.557 829.88 293.175 829.88 312.265C829.88 331.354 814.261 346.973 795.171 346.973H774.346L746.58 402.506H649.397Z" fill="#33BC00"/>
<path d="M746.58 569.108L718.813 513.575H697.988C678.899 513.575 663.28 497.956 663.28 478.866C663.28 459.777 678.899 444.158 697.988 444.158C702.674 444.158 706.665 440.34 706.665 435.481C706.665 433.225 705.798 430.969 704.062 429.407L697.988 423.333C686.535 411.88 686.535 393.137 697.988 381.683C709.442 370.23 728.184 370.23 739.638 381.683L745.712 387.757C749.009 391.055 754.563 391.228 757.86 387.757C759.422 386.195 760.463 383.939 760.463 381.683C760.463 362.594 776.082 346.975 795.171 346.975C814.261 346.975 829.88 362.594 829.88 381.683C829.88 386.369 833.698 390.36 838.557 390.36C840.813 390.36 843.069 389.493 844.631 387.757L850.705 381.683C862.158 370.23 880.901 370.23 892.355 381.683C903.808 393.137 903.808 411.88 892.355 423.333L886.281 429.407C882.983 432.704 882.81 438.258 886.281 441.555C887.842 443.117 890.098 444.158 892.355 444.158C911.444 444.158 927.063 459.777 927.063 478.866C927.063 497.956 911.444 513.575 892.355 513.575H871.53L843.763 569.108H746.58Z" fill="#008100"/>
<path d="M760.463 707.941L732.697 652.408H711.872C692.782 652.408 677.163 636.789 677.163 617.699C677.163 598.61 692.782 582.991 711.872 582.991C716.557 582.991 720.549 579.173 720.549 574.314C720.549 572.058 719.681 569.802 717.946 568.24L711.872 562.166C700.418 550.713 700.418 531.97 711.872 520.516C723.325 509.063 742.068 509.063 753.521 520.516L759.595 526.59C762.893 529.888 768.446 530.061 771.743 526.59C773.305 525.028 774.346 522.772 774.346 520.516C774.346 501.427 789.965 485.808 809.055 485.808C828.144 485.808 843.763 501.427 843.763 520.516C843.763 525.202 847.581 529.193 852.44 529.193C854.696 529.193 856.952 528.326 858.514 526.59L864.588 520.516C876.042 509.063 894.784 509.063 906.238 520.516C917.692 531.97 917.692 550.713 906.238 562.166L900.164 568.24C896.867 571.537 896.693 577.091 900.164 580.388C901.726 581.95 903.982 582.991 906.238 582.991C925.327 582.991 940.946 598.61 940.946 617.699C940.946 636.789 925.327 652.408 906.238 652.408H885.413L857.646 707.941H760.463Z" fill="#33BC00"/>
<path d="M177.364 610.758V541.341C177.364 387.931 301.62 263.675 455.03 263.675H510.564C663.974 263.675 788.23 387.931 788.23 541.341V610.758C788.23 664.382 831.789 707.941 885.413 707.941H274.548C220.923 707.941 177.364 664.38 177.364 610.758Z" fill="#FDB62F"/>
<path d="M177.364 610.758V541.341C177.364 387.931 301.62 263.675 455.03 263.675H510.564C663.974 263.675 788.23 387.931 788.23 541.341V610.758C788.23 664.382 831.789 707.941 885.413 707.941H274.548C220.923 707.941 177.364 664.38 177.364 610.758Z" fill="#FDB62F"/>
<path d="M441.147 346.973L413.381 291.44H392.556C373.466 291.44 357.847 275.821 357.847 256.732C357.847 237.642 373.466 222.023 392.556 222.023C397.241 222.023 401.233 218.206 401.233 213.346C401.233 211.09 400.365 208.834 398.63 207.272L392.556 201.199C381.102 189.745 381.102 171.002 392.556 159.549C404.009 148.095 422.752 148.095 434.206 159.549L440.279 165.623C443.577 168.92 449.13 169.093 452.427 165.623C453.989 164.061 455.03 161.805 455.03 159.549C455.03 140.459 470.649 124.84 489.739 124.84C508.828 124.84 524.447 140.459 524.447 159.549C524.447 164.234 528.265 168.226 533.124 168.226C535.38 168.226 537.636 167.358 539.198 165.623L545.272 159.549C556.726 148.095 575.468 148.095 586.922 159.549C598.376 171.002 598.376 189.745 586.922 201.199L580.848 207.272C577.551 210.57 577.377 216.123 580.848 219.42C582.41 220.982 584.666 222.023 586.922 222.023C606.011 222.023 621.63 237.642 621.63 256.732C621.63 275.821 606.011 291.44 586.922 291.44H566.097L538.33 346.973H441.147Z" fill="#008100"/>
<path d="M260.664 416.39L232.898 360.856H212.073C192.983 360.856 177.364 345.238 177.364 326.148C177.364 307.059 192.983 291.44 212.073 291.44C216.758 291.44 220.75 287.622 220.75 282.763C220.75 280.507 219.882 278.251 218.147 276.689L212.073 270.615C200.619 259.161 200.619 240.419 212.073 228.965C223.526 217.511 242.269 217.511 253.723 228.965L259.796 235.039C263.094 238.336 268.647 238.51 271.944 235.039C273.506 233.477 274.548 231.221 274.548 228.965C274.548 209.876 290.166 194.257 309.256 194.257C328.345 194.257 343.964 209.876 343.964 228.965C343.964 233.651 347.782 237.642 352.641 237.642C354.897 237.642 357.153 236.774 358.715 235.039L364.789 228.965C376.243 217.511 394.985 217.511 406.439 228.965C417.893 240.419 417.893 259.161 406.439 270.615L400.365 276.689C397.068 279.986 396.894 285.54 400.365 288.837C401.927 290.399 404.183 291.44 406.439 291.44C425.528 291.44 441.147 307.059 441.147 326.148C441.147 345.238 425.528 360.856 406.439 360.856H385.614L357.847 416.39H260.664Z" fill="#33BC00"/>
<path d="M177.364 610.758V541.341C177.364 387.931 301.62 263.675 455.03 263.675H510.564C663.974 263.675 788.23 387.931 788.23 541.341V610.758C788.23 664.382 831.789 707.941 885.413 707.941H274.548C220.923 707.941 177.364 664.38 177.364 610.758Z" fill="#FDB62F"/>
<path d="M829.186 277.904C822.938 271.656 815.129 267.144 806.452 265.062C821.897 247.881 821.376 221.676 805.063 205.364C788.577 189.571 762.719 188.877 745.365 203.975C739.118 177.944 712.913 161.805 686.882 168.052C669.007 172.217 655.124 186.274 650.959 203.975C638.811 193.389 621.977 190.439 606.879 195.819C612.953 179.853 608.962 161.978 596.987 149.83C580.501 134.038 554.643 133.344 537.289 148.442C531.042 122.411 504.837 106.272 478.806 112.519C460.931 116.684 447.048 130.741 442.883 148.442C425.529 133.518 399.671 134.212 383.184 149.83C367.739 165.449 366.351 190.265 380.061 207.273C371.384 208.314 363.401 211.958 356.98 217.685C350.732 191.654 324.527 175.514 298.496 181.762C280.622 185.927 266.738 199.984 262.573 217.685C245.219 202.76 219.361 203.455 202.875 219.073C186.562 235.386 185.868 261.591 201.487 278.772C175.455 285.019 159.316 311.224 165.564 337.428C170.77 359.121 190.206 374.566 212.593 374.74H216.758C182.397 423.505 163.828 481.641 164.002 541.34V610.756C164.002 672.016 213.808 721.822 275.068 721.822H885.934C947.194 721.822 997 672.016 997 610.756V541.34C996.132 428.538 931.054 326.148 829.186 277.904ZM829.88 402.506C838.21 405.977 847.928 404.068 854.349 397.647L860.423 391.573C866.497 385.673 876.215 385.673 882.463 391.573C888.537 397.647 888.537 407.539 882.463 413.613L876.389 419.687C867.538 428.538 867.712 442.768 876.562 451.619C880.727 455.784 886.454 458.213 892.355 458.213C903.808 458.213 913.18 467.584 913.18 479.038C913.18 481.468 912.659 483.724 911.965 485.98C911.965 486.153 911.965 486.327 911.791 486.5C910.924 488.583 909.882 490.318 908.494 492.054C908.32 492.227 908.147 492.401 907.973 492.748C906.585 494.31 904.85 495.698 903.114 496.739C902.767 496.913 902.594 497.086 902.246 497.26C900.337 498.301 898.255 498.995 896.172 499.343L895.305 499.516C894.958 499.516 894.784 499.516 894.437 499.516C891.313 498.822 888.016 498.475 884.892 498.475H884.372C881.248 498.648 878.124 498.995 875.174 499.863C874.827 500.037 874.306 499.863 873.959 500.037H871.53C870.315 500.037 868.927 500.21 867.712 500.557C867.365 500.731 866.844 500.904 866.497 501.078C865.803 501.251 865.109 501.599 864.414 502.119C863.373 502.813 862.505 503.681 861.464 504.375C861.117 504.896 860.77 505.243 860.423 505.764C860.076 506.284 859.729 506.631 859.382 507.152C858.34 508.02 857.299 508.887 856.258 509.755C850.358 484.418 825.715 468.452 800.204 473.311C799.336 473.485 798.469 473.658 797.601 474.005C796.386 474.353 795.171 474.526 794.13 474.873C793.783 473.311 793.263 471.923 792.915 470.535C792.395 468.279 791.701 466.023 791.006 463.767C789.271 457.693 787.536 451.792 785.453 445.892C784.759 443.809 784.065 441.727 783.371 439.644C780.594 432.009 777.47 424.546 773.999 417.257C773.305 415.869 772.611 414.654 771.917 413.44C769.834 409.101 767.578 404.763 765.322 400.598L765.496 400.424C766.711 399.556 767.925 398.341 768.967 397.127C769.14 396.78 769.314 396.606 769.661 396.259C770.355 395.218 771.049 394.35 771.743 393.135C771.917 392.615 772.264 392.268 772.438 391.747C772.958 390.706 773.305 389.664 773.652 388.623C773.826 388.103 773.999 387.755 773.999 387.235C774.346 385.673 774.52 383.938 774.52 382.376C774.52 380.467 774.867 378.558 775.561 376.649L776.603 374.393L778.859 369.707V369.534C779.379 368.839 780.073 368.145 780.594 367.625C781.115 367.104 781.462 366.583 781.982 366.236C782.677 365.716 783.544 365.195 784.238 364.674C784.759 364.327 785.28 363.98 785.8 363.633C786.668 363.113 787.709 362.766 788.75 362.592C789.271 362.418 789.792 362.245 790.139 362.071C791.701 361.724 793.436 361.377 794.998 361.377C806.452 361.377 815.823 370.748 815.823 382.202C815.996 390.879 821.376 399.036 829.88 402.506ZM632.563 224.974L638.637 231.048C647.488 239.898 661.718 239.898 670.569 231.048C674.734 226.883 677.163 221.156 677.163 215.082C677.163 203.628 686.535 194.257 697.988 194.257C709.442 194.257 718.813 203.628 718.813 215.082C718.813 227.577 728.879 237.642 741.374 237.642C747.274 237.642 753.001 235.213 757.339 231.048L763.413 224.974C769.487 219.073 779.206 219.073 785.453 224.974C791.527 231.048 791.527 240.94 785.453 247.014L779.379 253.087C770.529 261.938 770.529 276.168 779.379 285.019C783.544 289.184 789.271 291.614 795.345 291.614C806.799 291.787 815.996 300.985 816.17 312.439C816.17 323.892 806.799 333.264 795.345 333.264C779.9 333.264 765.322 340.726 756.125 353.394C756.125 353.568 755.951 353.741 755.951 353.741C754.563 355.65 753.522 357.559 752.48 359.642C752.133 360.509 751.786 361.377 751.439 362.071C750.918 363.286 750.224 364.674 749.704 365.889L747.621 370.054C746.58 369.187 745.539 368.319 744.497 367.625C740.853 362.592 737.035 357.906 733.044 353.221L732.523 352.527C728.358 347.667 724.193 343.155 719.854 338.643C718.293 337.081 716.731 335.52 714.995 333.958C711.872 330.834 708.748 327.884 705.624 324.934C703.715 323.198 701.633 321.463 699.724 319.901C696.773 317.298 693.65 314.868 690.526 312.439C688.444 310.703 686.188 309.141 683.932 307.579C680.808 305.323 677.684 303.067 674.56 300.811C672.304 299.249 670.048 297.688 667.792 296.299C664.495 294.217 661.198 292.134 657.727 290.225C655.471 288.837 653.215 287.449 650.785 286.234C647.141 284.151 643.323 282.416 639.678 280.507C637.596 279.466 635.513 278.424 633.257 277.383C632.737 277.21 632.216 276.863 631.696 276.689C631.869 276.342 631.869 275.995 632.043 275.648C633.257 272.871 634.125 269.921 634.819 266.797C636.208 260.55 636.208 253.955 634.819 247.708C634.646 246.84 634.299 245.799 634.125 244.931C633.604 242.849 632.91 240.766 632.043 238.684C631.696 237.642 631.175 236.775 630.828 235.907C629.787 233.824 628.745 231.915 627.357 230.006C626.836 229.312 626.489 228.618 625.969 227.924C624.06 225.494 622.151 223.238 619.895 221.156L619.721 220.982C624.06 219.941 629.092 221.503 632.563 224.974ZM402.447 169.441C408.521 163.54 418.24 163.54 424.487 169.441L430.561 175.514C439.412 184.365 453.642 184.365 462.493 175.514C466.658 171.35 469.087 165.623 469.087 159.549C469.087 148.095 478.459 138.724 489.912 138.724C501.366 138.724 510.737 148.095 510.737 159.549C510.737 172.044 520.803 182.109 533.298 182.109C539.198 182.109 544.925 179.679 549.263 175.514L555.337 169.441C561.411 163.54 571.13 163.54 577.377 169.441C583.451 175.514 583.451 185.406 577.377 191.48L571.303 197.554C562.453 206.405 562.453 220.635 571.303 229.486C575.468 233.651 581.195 236.08 587.269 236.08C589.004 236.08 590.566 236.427 592.128 236.775C601.499 239.031 607.92 247.361 608.094 256.905C608.094 258.294 607.92 259.682 607.747 261.07C607.4 262.806 606.706 264.368 605.838 265.93L602.541 264.888C573.039 254.996 541.975 249.964 510.911 249.964H455.378C447.221 249.964 438.891 250.484 430.388 251.178C430.041 251.178 429.693 251.178 429.173 251.178C429.173 250.484 428.999 249.964 428.999 249.443C428.999 247.881 428.826 246.319 428.652 244.584C428.479 243.369 428.305 242.328 428.132 241.113C427.785 239.551 427.264 237.816 426.743 236.254C426.396 235.213 426.049 234.171 425.702 233.13C425.008 231.395 424.14 229.833 423.099 228.098C422.578 227.23 422.231 226.362 421.711 225.668C420.149 223.238 418.413 220.982 416.331 219.073C415.81 218.553 415.29 218.032 414.769 217.511C416.157 210.223 413.901 202.587 408.521 197.381L402.447 191.307C396.374 185.233 396.374 175.514 402.447 169.441ZM212.073 346.973C200.619 346.973 191.248 337.602 191.248 326.148C191.248 314.695 200.619 305.323 212.073 305.323C224.568 305.323 234.633 295.258 234.633 282.763C234.633 276.863 232.203 271.136 228.038 266.797L221.965 260.723C215.891 254.649 215.891 244.757 221.965 238.684C228.038 232.783 237.757 232.783 244.004 238.684L250.078 244.757C258.929 253.608 273.159 253.608 282.01 244.757C286.175 240.592 288.604 234.866 288.604 228.792C288.604 217.338 297.976 207.967 309.429 207.967C320.883 207.967 330.254 217.338 330.254 228.792C330.254 241.287 340.32 251.352 352.815 251.352C358.715 251.352 364.442 248.922 368.78 244.757L374.854 238.684C379.019 234.692 384.92 233.13 390.473 234.866C392.903 235.56 395.159 236.775 396.894 238.684C398.456 240.245 399.671 242.328 400.365 244.41C400.886 245.972 401.233 247.708 401.233 249.443C401.233 250.658 401.059 251.699 400.886 252.914C400.712 253.435 400.712 253.955 400.539 254.476C400.539 254.649 400.365 254.823 400.191 255.17C396.547 255.864 393.076 256.732 389.605 257.6C387.176 258.12 384.746 258.641 382.49 259.161C375.549 260.897 368.607 262.979 361.839 265.235C355.418 267.318 349.17 269.747 343.096 272.351C341.187 273.218 339.105 274.086 337.196 274.954C333.031 276.863 329.04 278.598 324.875 280.681C322.618 281.895 320.362 283.11 318.106 284.325C314.462 286.234 310.818 288.143 307.347 290.225C305.091 291.614 302.835 293.002 300.405 294.39C297.108 296.473 293.811 298.729 290.513 300.985C288.257 302.547 286.001 304.109 283.745 305.844C280.622 308.1 277.498 310.53 274.374 312.959C272.292 314.695 270.035 316.43 267.953 318.165C265.003 320.769 262.053 323.372 259.102 325.975C257.02 327.884 255.111 329.619 253.028 331.528C250.078 334.305 247.302 337.255 244.525 340.205C242.616 342.114 240.707 344.023 238.972 346.106C238.451 346.626 238.104 346.973 237.583 347.494C236.195 346.973 234.633 346.8 233.071 346.8L212.073 346.973ZM760.463 694.058H274.548C228.559 694.058 191.248 656.746 191.248 610.758V541.341C191.421 428.366 263.441 328.059 370.342 291.789C397.762 282.765 426.223 277.906 455.031 277.559H510.564C538.677 277.559 566.618 282.071 593.343 291.095C597.334 292.483 601.152 293.871 605.144 295.433C652.347 313.655 693.303 345.066 723.152 385.848V386.022C727.837 392.269 732.176 399.037 736.514 405.979C753.695 434.44 765.149 465.851 770.529 498.65C772.958 512.88 774.173 527.111 774.346 541.515V610.931C774.346 616.485 774.867 621.864 775.735 627.244C775.908 628.459 776.082 629.847 776.429 631.062C777.297 636.268 778.685 641.475 780.42 646.507C780.594 646.854 780.768 647.201 780.768 647.549C782.503 652.234 784.412 656.746 786.668 661.258C787.189 662.299 787.709 663.514 788.403 664.556C790.833 669.068 793.783 673.58 796.907 677.745C797.254 678.265 797.775 678.786 798.122 679.133C801.072 682.777 804.196 686.422 807.493 689.719C808.361 690.587 809.228 691.454 810.096 692.322C810.79 693.016 811.484 693.711 812.179 694.231L760.463 694.058ZM872.918 646.158L852.614 687.114C852.267 686.941 851.746 686.767 851.399 686.594C849.837 685.899 848.449 685.032 847.06 684.338C844.631 683.123 842.375 681.908 840.119 680.346C838.73 679.305 837.342 678.264 835.78 677.222C833.698 675.66 831.789 674.099 829.88 672.537C828.491 671.322 827.277 670.107 826.062 668.719C824.326 666.983 822.764 665.074 821.203 663.165C820.161 661.777 818.947 660.389 817.905 659C816.517 656.918 815.129 654.836 813.914 652.753C813.046 651.191 812.179 649.803 811.311 648.241C810.096 645.985 809.228 643.555 808.187 641.126C807.493 639.564 806.972 638.002 806.452 636.44C805.584 633.663 804.89 630.887 804.369 628.11C804.022 626.722 803.675 625.333 803.501 623.945C802.807 619.607 802.46 615.268 802.46 610.756V541.34C802.46 534.571 802.113 527.456 801.592 520.341C801.419 517.911 801.072 515.482 800.725 512.879C800.378 509.408 800.031 505.937 799.51 502.293L800.204 501.946C801.245 501.425 802.113 501.078 803.154 500.731C803.675 500.557 804.022 500.384 804.543 500.384C815.649 497.607 826.756 504.375 829.533 515.482C829.88 517.217 830.053 518.953 830.053 520.515C829.88 531.795 838.383 541.513 849.663 542.728C850.184 542.728 850.531 542.901 851.052 542.901C851.572 542.901 852.093 543.075 852.44 543.075C855.911 543.075 859.208 542.207 862.332 540.645C862.679 540.472 863.2 540.298 863.547 539.951C865.282 538.91 867.018 537.869 868.406 536.307L874.48 530.233C875.348 529.365 876.389 528.671 877.43 527.977C877.951 527.803 878.298 527.63 878.818 527.456H891.487C893.222 528.15 894.958 529.018 896.346 530.406C902.42 536.48 902.42 546.372 896.346 552.446L890.272 558.52C881.422 567.371 881.595 581.601 890.272 590.452C894.437 594.617 900.164 597.046 906.064 597.046C917.518 597.046 926.889 606.417 926.889 617.871C926.889 629.325 917.518 638.696 906.064 638.696H885.239C880.207 638.524 875.348 641.475 872.918 646.158ZM968.713 610.758C968.713 656.746 931.228 694.058 885.239 693.884C884.719 693.884 884.025 693.884 883.504 693.884C882.463 693.884 881.248 693.711 880.207 693.711L893.916 666.291H906.238C933.137 666.117 954.656 644.251 954.656 617.526C954.482 595.139 939.211 575.876 917.518 570.496C919.253 568.587 920.815 566.331 922.204 564.075C922.724 563.381 923.071 562.513 923.418 561.819C924.286 560.257 924.98 558.695 925.674 557.133C926.022 556.266 926.369 555.225 926.542 554.357C927.063 552.795 927.41 551.407 927.757 549.845C927.931 548.804 928.104 547.762 928.278 546.721C928.451 545.159 928.625 543.597 928.625 542.209C928.625 541.168 928.625 540.126 928.625 539.259C928.451 537.697 928.278 536.135 928.104 534.4C927.931 533.532 927.931 532.491 927.583 531.623C927.063 529.714 926.542 527.979 925.848 526.243C925.674 525.549 925.501 525.028 925.154 524.334C924.113 521.905 922.898 519.649 921.51 517.566C922.03 517.219 922.377 516.698 922.898 516.178C924.98 514.616 926.716 512.707 928.451 510.798C929.145 509.93 929.839 508.889 930.707 508.021C932.096 506.286 933.31 504.377 934.352 502.468C935.046 501.427 935.566 500.385 936.087 499.171C937.128 497.088 937.822 494.832 938.517 492.576C938.864 491.535 939.211 490.494 939.558 489.452C940.426 485.982 940.773 482.511 940.773 478.866C940.773 456.48 925.327 436.869 903.461 431.663C918.906 414.483 918.212 388.278 902.073 371.965C885.586 356.173 859.729 355.479 842.375 370.577C841.854 368.147 840.986 365.717 839.945 363.288C839.598 362.594 839.251 361.9 838.904 361.205C838.21 359.644 837.342 358.082 836.474 356.693C835.954 355.826 835.433 355.131 834.912 354.437C834.045 353.049 833.003 351.834 831.962 350.619C831.268 349.925 830.747 349.231 830.053 348.537C829.706 348.19 829.359 347.669 828.839 347.149L829.012 346.975C829.533 346.454 829.88 345.934 830.4 345.413C831.962 343.851 833.351 342.116 834.739 340.207C835.433 339.339 835.78 338.298 836.474 337.43C837.516 335.868 838.383 334.133 839.251 332.571C839.772 331.53 840.119 330.315 840.466 329.274C841.16 327.538 841.68 325.803 842.028 324.068C842.375 322.853 842.548 321.638 842.722 320.423C842.895 319.555 843.242 318.688 843.242 317.647C920.815 365.717 968.019 450.406 968.366 541.688L968.713 610.758Z" fill="black"/>
<path d="M1471.45 624.813H1357.76L1308.47 422.629C1306.98 416.855 1305.33 402.501 1303.51 379.569H1302.52C1300.05 399.862 1297.65 414.215 1295.34 422.629L1242.09 624.813H1121.71L1037 269.939H1154.4L1184.13 478.805C1184.62 481.445 1185.37 489.116 1186.36 501.82L1187.84 522.36H1189.33C1189.66 518.071 1190.65 510.811 1192.3 500.583C1193.95 490.189 1195.52 482.435 1197.01 477.32L1251.75 269.939H1368.41L1413.98 480.29L1417.2 501.325L1419.68 521.865H1420.67L1421.41 513.204L1424.63 478.805L1455.59 269.939H1561.11L1471.45 624.813Z" fill="white"/>
<path d="M1836.49 624.813L1809.99 548.345C1804.87 533.331 1798.18 521.535 1789.92 512.956C1781.83 504.377 1773 500.088 1763.42 500.088H1759.21V624.813H1652.21V269.939H1794.38C1844.09 269.939 1880.74 278.106 1904.36 294.439C1928.14 310.607 1940.02 334.942 1940.02 367.443C1940.02 391.86 1933.09 412.318 1919.22 428.816C1905.51 445.314 1885.04 457.275 1857.79 464.699V465.689C1872.82 470.309 1885.28 477.815 1895.19 488.209C1905.27 498.603 1914.26 514.029 1922.19 534.486L1957.11 624.813H1836.49ZM1826.33 382.539C1826.33 370.66 1822.7 361.256 1815.44 354.327C1808.17 347.398 1796.78 343.933 1781.26 343.933H1759.21V425.104H1778.53C1792.9 425.104 1804.46 421.062 1813.21 412.978C1821.96 404.894 1826.33 394.747 1826.33 382.539Z" fill="white"/>
<path d="M2049.21 624.813V269.939H2270.39V353.585H2156.21V405.306H2263.46V488.951H2156.21V541.168H2278.57V624.813H2049.21Z" fill="white"/>
<path d="M2379.82 624.813V269.939H2486.82V541.168H2609.18V624.813H2379.82Z" fill="white"/>
<path d="M2704.99 624.813V269.939H2811.99V541.168H2934.35V624.813H2704.99Z" fill="white"/>
<path d="M3368 446.386C3368 482.022 3360.32 513.946 3344.96 542.158C3329.61 570.205 3308.14 592.065 3280.57 607.738C3252.99 623.246 3222.11 631 3187.93 631C3154.57 631 3124.19 623.493 3096.78 608.48C3069.53 593.302 3048.32 572.102 3033.12 544.88C3017.93 517.493 3010.34 486.559 3010.34 452.078C3010.34 415.947 3018.02 383.446 3033.37 354.575C3048.73 325.703 3070.28 303.43 3098.02 287.757C3125.76 271.919 3157.3 264 3192.64 264C3226.65 264 3257.04 271.589 3283.79 286.767C3310.7 301.781 3331.42 323.311 3345.96 351.357C3360.65 379.239 3368 410.915 3368 446.386ZM3254.56 449.356C3254.56 420.154 3248.94 397.14 3237.72 380.312C3226.49 363.483 3211.13 355.069 3191.65 355.069C3170.34 355.069 3153.75 363.154 3141.86 379.322C3129.97 395.49 3124.03 418.34 3124.03 447.871C3124.03 476.743 3129.89 499.263 3141.61 515.431C3153.5 531.599 3169.6 539.683 3189.91 539.683C3202.3 539.683 3213.44 536.053 3223.35 528.794C3233.26 521.535 3240.94 511.141 3246.38 497.613C3251.83 484.085 3254.56 467.999 3254.56 449.356Z" fill="white"/>
</svg>
